<?xml version="1.0" standalone="no"?>
<!DOCTYPE svg PUBLIC "-//W3C//DTD SVG 20010904//EN"
 "http://www.w3.org/TR/2001/REC-SVG-20010904/DTD/svg10.dtd">
<svg version="1.0" xmlns="http://www.w3.org/2000/svg"
 width="260.000000pt" height="260.000000pt" viewBox="0 0 260.000000 260.000000"
 preserveAspectRatio="xMidYMid meet">
<metadata>
Created by potrace 1.14, written by Peter Selinger 2001-2017
</metadata>
<g transform="translate(0.000000,260.000000) scale(0.100000,-0.100000)"
fill="#000000" stroke="none">
<path d="M1266 2522 c-3 -5 1 -9 9 -9 8 0 12 4 9 9 -3 4 -7 8 -9 8 -2 0 -6 -4
-9 -8z"/>
<path d="M1013 2507 c-3 -4 -18 -6 -34 -3 -18 3 -28 0 -26 -7 1 -7 -8 -11 -20
-10 -13 2 -23 -1 -23 -5 0 -13 -60 -34 -85 -30 -14 3 -22 1 -19 -3 3 -5 -2 -9
-10 -9 -9 0 -16 -5 -16 -10 0 -6 -12 -16 -27 -23 -16 -6 -33 -16 -39 -22 -6
-5 -21 -17 -33 -25 -11 -8 -21 -23 -21 -33 0 -13 -5 -17 -15 -13 -8 3 -14 2
-14 -2 4 -22 -3 -33 -15 -29 -9 4 -16 -4 -21 -21 -3 -14 -21 -44 -38 -66 -18
-22 -26 -36 -18 -32 15 10 -14 -48 -36 -72 -15 -16 -27 -57 -20 -69 3 -4 -4
-26 -15 -48 -11 -22 -20 -56 -19 -75 0 -24 -2 -31 -8 -21 -6 9 -8 0 -5 -25 3
-21 5 -45 4 -51 0 -7 -2 -24 -3 -38 -1 -14 -6 -25 -11 -25 -5 0 -7 -3 -3 -6 3
-4 -1 -13 -9 -21 -8 -8 -12 -19 -8 -24 3 -6 0 -17 -7 -25 -10 -12 -10 -15 1
-12 8 2 14 -5 14 -17 0 -11 4 -23 9 -26 5 -3 9 -12 11 -20 1 -8 6 -24 10 -36
10 -31 -1 -48 -22 -31 -12 10 -12 7 2 -15 15 -22 16 -30 5 -43 -7 -8 -21 -13
-31 -11 -10 3 -16 1 -13 -3 3 -5 -3 -9 -12 -9 -63 -2 -83 -12 -83 -40 0 -9
-16 -31 -35 -48 -19 -18 -35 -36 -35 -40 0 -4 -13 -16 -30 -25 -22 -13 -29
-23 -27 -45 2 -23 -2 -28 -20 -27 -13 0 -24 -2 -24 -5 -1 -3 -3 -17 -4 -31 -1
-13 -8 -26 -14 -28 -6 -2 -11 -21 -11 -42 0 -21 -4 -50 -10 -64 -7 -18 -6 -26
1 -26 7 0 9 -9 5 -23 -4 -12 -9 -30 -11 -39 -2 -9 -8 -26 -14 -37 -6 -11 -11
-31 -11 -46 0 -18 -4 -24 -13 -19 -9 6 -9 4 1 -8 12 -15 12 -51 -1 -64 -3 -4
-1 -16 5 -28 6 -11 13 -34 15 -50 1 -16 10 -43 19 -60 9 -17 18 -42 20 -56 3
-13 11 -31 17 -39 9 -12 9 -13 0 -7 -7 4 -13 2 -13 -3 0 -6 10 -11 23 -11 18
0 19 -2 7 -10 -13 -8 -13 -10 2 -10 11 0 15 -5 12 -14 -3 -8 0 -17 5 -21 6 -3
8 -11 5 -17 -4 -6 -3 -8 3 -5 12 8 53 -20 53 -35 0 -7 -6 -4 -13 7 -11 14 -16
15 -22 5 -5 -8 -4 -11 2 -7 6 4 13 0 17 -8 4 -12 11 -13 32 -5 24 9 25 9 14
-5 -7 -8 -10 -18 -6 -22 3 -3 6 -1 6 6 0 7 5 9 10 6 6 -4 8 -10 5 -15 -3 -4 3
-6 14 -3 10 3 22 0 25 -6 9 -14 38 -2 29 13 -3 6 -2 7 3 3 5 -5 9 -14 9 -20 0
-7 5 -13 10 -14 6 -1 9 6 8 15 -1 10 0 11 3 4 3 -6 11 -9 17 -5 6 4 8 1 5 -8
-4 -11 1 -14 23 -13 16 1 29 -3 29 -8 0 -6 11 -7 26 -4 19 5 24 4 18 -6 -4 -7
-4 -10 1 -6 4 4 15 2 24 -5 14 -11 14 -10 2 6 -16 20 -8 22 22 5 28 -16 79
-18 67 -3 -11 13 36 13 47 0 5 -4 2 -5 -6 0 -9 5 -12 4 -7 -3 7 -12 56 -6 71
10 7 8 6 9 -4 3 -9 -5 -12 -4 -7 3 5 9 13 9 28 1 18 -10 20 -9 14 7 -4 10 -4
15 0 11 4 -4 14 -1 22 6 13 9 14 9 8 0 -4 -7 -2 -13 3 -13 6 0 11 5 11 12 0 9
3 9 12 0 10 -10 16 -8 31 10 10 13 17 16 14 8 -3 -10 2 -16 13 -16 11 0 16 5
12 15 -4 10 -1 12 8 6 10 -6 12 -4 6 10 -6 17 -5 18 11 3 16 -14 21 -13 52 8
19 13 30 24 25 24 -5 0 -1 5 9 11 9 5 22 7 27 4 6 -3 10 -1 10 4 0 6 6 10 12
9 9 -2 12 9 11 32 -1 23 1 30 7 20 5 -8 6 -18 3 -24 -3 -5 -1 -6 5 -2 7 4 12
16 12 27 0 21 15 26 24 7 4 -7 4 -3 2 10 -2 12 0 22 6 22 5 0 6 5 2 12 -4 7
-3 8 4 4 6 -4 8 -14 5 -23 -4 -11 -3 -14 5 -9 7 4 12 14 12 22 0 8 5 14 11 14
5 0 8 -4 4 -9 -3 -5 0 -13 6 -17 8 -4 9 -3 5 5 -9 13 23 28 33 15 3 -5 12 -10
20 -12 11 -2 12 0 3 11 -9 11 -8 14 3 14 13 0 18 -9 17 -27 0 -3 15 -5 34 -5
19 1 37 -2 40 -7 3 -5 0 -7 -7 -6 -6 2 -14 -3 -16 -10 -3 -8 1 -10 11 -6 9 3
16 1 16 -5 0 -6 -6 -11 -12 -11 -9 0 -9 -3 1 -9 8 -5 20 -7 28 -4 9 4 11 0 7
-12 -6 -14 -3 -16 17 -10 22 7 22 7 6 -9 -22 -23 -22 -25 8 -22 13 2 22 0 20
-4 -3 -4 2 -13 10 -20 8 -7 15 -19 15 -27 0 -8 5 -11 10 -8 6 3 10 1 10 -5 0
-6 4 -9 9 -5 6 3 8 -4 6 -15 -3 -14 1 -20 15 -20 10 0 21 -7 24 -16 4 -10 12
-14 22 -10 12 5 14 1 9 -17 -3 -12 -3 -17 2 -12 12 15 45 15 39 0 -3 -9 3 -12
25 -8 28 4 34 -3 30 -32 -1 -5 7 1 18 15 l20 25 -4 -23 c-3 -20 -2 -22 10 -12
12 10 15 10 15 0 0 -7 8 -10 20 -7 13 3 20 0 20 -9 0 -8 4 -14 9 -14 6 0 8 10
6 21 -3 12 -1 18 3 15 4 -4 7 -12 7 -17 0 -5 5 -9 10 -10 6 0 16 -5 23 -11 9
-8 11 -7 6 7 -6 15 -4 15 14 4 17 -11 23 -10 38 2 16 12 17 12 12 -3 -6 -14
-2 -15 24 -7 17 5 42 6 56 2 17 -4 23 -2 18 5 -3 6 -2 14 4 17 6 4 9 1 8 -6
-2 -6 3 -14 11 -17 9 -3 11 0 6 8 -6 10 -4 11 6 4 20 -12 40 -14 33 -3 -3 5
-10 7 -15 4 -5 -3 -6 1 -2 10 3 9 9 13 12 8 10 -16 44 -25 38 -11 -5 15 46 19
59 5 5 -4 0 -5 -11 -2 -16 5 -17 5 -5 -3 18 -13 33 -5 26 15 -3 8 -1 11 5 8 5
-4 16 -1 24 5 8 7 15 9 15 5 0 -4 -7 -13 -17 -20 -13 -9 -13 -14 -3 -20 9 -5
11 -4 6 3 -4 7 -2 12 5 12 6 0 18 8 26 18 7 9 12 13 11 7 -2 -5 2 -10 7 -11 6
0 9 9 7 20 -2 19 -1 19 8 4 9 -15 14 -15 24 -5 8 6 11 16 8 21 -3 5 0 6 6 2 6
-3 14 -1 18 5 3 6 21 18 38 26 66 31 92 49 89 60 -6 16 28 53 40 46 6 -3 7 -1
4 5 -9 14 3 43 14 36 5 -3 9 0 9 5 0 16 32 51 42 45 4 -3 5 2 2 11 -8 19 19
76 44 94 12 8 18 21 14 33 -2 10 1 40 9 66 7 26 12 66 12 90 -1 30 2 40 10 35
8 -5 8 -2 0 9 -7 8 -14 28 -15 44 -1 16 -6 35 -12 42 -7 10 -5 16 5 23 10 6
10 9 2 9 -7 0 -13 9 -13 20 0 12 -8 37 -19 58 -10 20 -21 52 -24 70 -4 18 -16
45 -28 61 -12 17 -18 34 -14 42 5 8 4 10 -3 5 -7 -4 -12 -3 -12 3 0 5 -16 24
-35 42 -18 18 -32 35 -31 38 4 6 -24 36 -34 36 -3 0 -4 3 -2 8 1 4 -4 7 -11 7
-8 0 -37 21 -67 48 -29 26 -55 47 -59 47 -8 1 -55 26 -61 34 -10 12 -50 31
-65 31 -10 0 -13 5 -9 12 4 6 3 8 -3 5 -14 -9 -63 15 -63 30 0 7 -6 10 -14 7
-19 -7 -30 14 -16 31 7 8 10 20 7 27 -2 7 4 28 14 46 9 18 16 41 14 50 -2 9
-4 22 -4 28 -1 6 -22 9 -55 7 -53 -2 -54 -2 -61 30 -12 47 -11 52 3 49 8 -1
11 2 7 7 -3 6 -13 7 -21 4 -13 -5 -15 0 -11 26 3 17 2 33 -2 35 -4 3 -8 18 -9
34 -1 17 -10 47 -19 68 -9 22 -16 42 -15 47 1 4 -2 7 -7 7 -5 0 -14 13 -20 28
-6 15 -23 40 -36 56 -14 16 -22 33 -19 37 3 5 -2 9 -11 9 -9 0 -13 5 -10 10 3
6 1 10 -4 10 -18 0 -52 40 -45 52 4 6 3 9 -2 5 -14 -8 -47 20 -38 34 4 7 3 10
-4 5 -17 -10 -61 15 -64 38 -2 13 -19 29 -43 42 -22 12 -39 26 -37 33 1 6 -12
12 -30 13 -39 1 -48 3 -68 11 -8 4 -26 9 -40 11 -14 2 -24 8 -23 12 1 5 -13
10 -30 11 -69 4 -97 8 -97 13 0 8 -162 6 -167 -3z m-843 -2027 c0 -5 -2 -10
-4 -10 -3 0 -8 5 -11 10 -3 6 -1 10 4 10 6 0 11 -4 11 -10z m845 -10 c3 -6 -1
-7 -9 -4 -18 7 -21 14 -7 14 6 0 13 -4 16 -10z m-705 -90 c0 -5 -2 -10 -4 -10
-3 0 -8 5 -11 10 -3 6 -1 10 4 10 6 0 11 -4 11 -10z m260 -50 c0 -7 -13 -7
-38 -1 -2 1 -1 5 3 11 6 10 35 2 35 -10z m95 11 c3 -5 2 -12 -3 -15 -5 -3 -9
1 -9 9 0 17 3 19 12 6z m1182 -106 c0 -8 -4 -12 -9 -9 -5 3 -6 10 -3 15 9 13
12 11 12 -6z"/>
<path d="M1916 1887 c3 -10 9 -15 12 -12 3 3 0 11 -7 18 -10 9 -11 8 -5 -6z"/>
<path d="M1915 1821 c-3 -5 -2 -12 3 -15 5 -3 9 1 9 9 0 17 -3 19 -12 6z"/>
<path d="M2015 1609 c-4 -6 -5 -12 -2 -15 2 -3 7 2 10 11 7 17 1 20 -8 4z"/>
<path d="M2056 1582 c-3 -5 1 -9 9 -9 8 0 12 4 9 9 -3 4 -7 8 -9 8 -2 0 -6 -4
-9 -8z"/>
<path d="M376 1502 c-3 -4 4 -9 15 -9 23 -2 25 3 4 10 -8 4 -16 3 -19 -1z"/>
<path d="M2476 473 c-6 -14 -5 -15 5 -6 7 7 10 15 7 18 -3 3 -9 -2 -12 -12z"/>
<path d="M1350 411 c0 -5 7 -12 16 -15 14 -5 15 -4 4 9 -14 17 -20 19 -20 6z"/>
</g>
</svg>
